<?xml version="1.0" standalone="no"?><!DOCTYPE svg PUBLIC "-//W3C//DTD SVG 1.1//EN" "http://www.w3.org/Graphics/SVG/1.1/DTD/svg11.dtd"><svg t="1508425610403" class="icon" style="" viewBox="0 0 1024 1024" version="1.1" xmlns="http://www.w3.org/2000/svg" p-id="716" xmlns:xlink="http://www.w3.org/1999/xlink" width="200" height="200"><defs><style type="text/css"></style></defs><path d="M512 229.714286c19.428571 0 37.714286 9.142857 51.428571 21.714285 12.571429 12.571429 20.571429 30.857143 20.571429 51.428572 0 19.428571-8 37.714286-20.571429 50.285714-13.714286 13.714286-32 21.714286-51.428571 21.714286s-37.714286-8-51.428571-21.714286c-12.571429-12.571429-20.571429-30.857143-20.571429-50.285714 0-20.571429 8-38.857143 20.571429-51.428572 13.714286-12.571429 32-21.714286 51.428571-21.714285z m0-229.714286c141.714286 0 269.714286 57.142857 362.285714 149.714286s149.714286 220.571429 149.714286 362.285714-57.142857 269.714286-149.714286 362.285714-220.571429 149.714286-362.285714 149.714286-269.714286-57.142857-362.285714-149.714286S0 653.714286 0 512s57.142857-269.714286 149.714286-362.285714S370.285714 0 512 0z m340.571429 171.428571C765.714286 83.428571 645.714286 29.714286 512 29.714286S258.285714 83.428571 171.428571 171.428571C83.428571 258.285714 29.714286 378.285714 29.714286 512s53.714286 253.714286 141.714285 340.571429c86.857143 88 206.857143 141.714286 340.571429 141.714285s253.714286-53.714286 340.571429-141.714285c88-86.857143 141.714286-206.857143 141.714285-340.571429s-53.714286-253.714286-141.714285-340.571429zM497.142857 464c0-8 6.857143-14.857143 14.857143-14.857143s14.857143 6.857143 14.857143 14.857143v315.428571c0 8-6.857143 14.857143-14.857143 14.857143s-14.857143-6.857143-14.857143-14.857143V464z m44.571429-192c-8-6.857143-18.285714-12.571429-29.714286-12.571429s-21.714286 5.714286-29.714286 12.571429c-8 8-12.571429 18.285714-12.571428 30.857143 0 11.428571 4.571429 21.714286 12.571428 29.714286 8 6.857143 18.285714 12.571429 29.714286 12.571428s21.714286-5.714286 29.714286-12.571428c8-8 12.571429-18.285714 12.571428-29.714286 0-12.571429-4.571429-22.857143-12.571428-30.857143z" fill="" p-id="717"></path></svg>