<?xml version="1.0" standalone="no"?><!DOCTYPE svg PUBLIC "-//W3C//DTD SVG 1.1//EN" "http://www.w3.org/Graphics/SVG/1.1/DTD/svg11.dtd"><svg t="1508426632586" class="icon" style="" viewBox="0 0 1024 1024" version="1.1" xmlns="http://www.w3.org/2000/svg" p-id="2831" xmlns:xlink="http://www.w3.org/1999/xlink" width="16" height="16"><defs><style type="text/css"></style></defs><path d="M949.376 842.105l-0.032-554.687 0.031-1.986c0.07-5.282 0.183-17.007-6.634-23.935-2.979-3.009-8.269-9.473-16.662-9.473H627.078l124.06-176.302c7.4-10.671 4.727-23.885-5.954-31.279-10.676-7.388-25.331-6.889-32.722 3.79l-142.584 203.79H522.38c-1.343 0-2.792 0.634-4.439-0.239L266.576 119.458c-11.458-6.096-25.7-1.03-31.81 10.438-6.098 11.467-1.755 23.18 9.721 29.285l179.19 92.843H131.974c-16.174 0-31.999 18.955-31.999 35.164v552.707c0 16.207 15.825 31.23 31.999 31.23h62.267c3.092 16.372 13.68 40.89 23.123 50.705 13.149 13.68 30.519 20.926 46.447 20.926h0.035c18.223 0 37.461-8.118 51.47-23.126 9.03-9.664 19.342-32.133 23.014-48.506h373.34c3.084 16.373 13.68 40.892 23.114 50.706 13.158 13.68 30.527 20.926 46.448 20.926h0.061c18.205 0 37.435-8.118 51.444-23.126 9.03-9.664 19.341-32.133 23.02-48.506h70.323c8.392 0 13.682-4.496 16.662-7.506 6.817-6.922 6.704-16.222 6.634-21.513zM289.53 893.85c-8.789 9.4-19.023 10.022-25.676 10.022h-0.008c-5.03 0-13.758-0.814-21.055-8.395-5.006-5.2-10.556-18.212-12.994-24.35h72.52c-2.88 6.14-8.11 17.717-12.787 22.723z m517.429-0.001c-8.79 9.402-19.023 10.022-25.666 10.022h-0.026c-5.03 0-13.75-0.814-21.059-8.395-4.996-5.2-10.545-18.211-12.973-24.35h72.509c-2.878 6.139-8.117 17.717-12.785 22.723z m104.499-60.586h-68.313c-1.146 0-2.345-0.364-3.558-0.364-1.242 0-2.455 0.364-3.628 0.364H731.552c-0.836 0-1.652-0.321-2.514-0.354-1.413-0.042-2.776 0.354-4.085 0.354H132.722V289.886h778.736v543.376z m-57.002-453.695c0.912-3.721 3.552-13.222-2.572-20.996-3.791-4.846-8.965-8.31-15.502-8.31H220.33c-11.744 0-32.35 10.256-32.35 29.569v376.405c0 22.691 21.46 27.908 32.35 27.908h616.053c6.09 0 11.776-1.205 15.54-5.772 6.471-7.85 2.564-16.522 1.574-21.55-0.113-0.657-2.411-0.779-2.414-0.779v0.096-0.096l2.027-375.193 1.346-1.282z m-41.236 365.69H232.013l0.05-362.25H813.22v362.25zM397.857 474.136l-118.33 56.592c-8.795 4.204-12.5 14.734-8.306 23.518 3.025 6.337 9.35 10.042 15.92 10.042a17.57 17.57 0 0 0 7.602-1.738l118.328-56.59c8.797-4.207 12.51-14.736 8.305-23.523-4.21-8.792-14.748-12.537-23.519-8.301z m369.606 67.013l-130.82-80.11c-8.288-5.083-19.163-2.484-24.263 5.834-5.084 8.304-2.481 19.166 5.842 24.252l130.823 80.115a17.565 17.565 0 0 0 9.182 2.594c5.955 0 11.744-2.99 15.077-8.428 5.084-8.31 2.474-19.17-5.84-24.257zM644.276 597.35c-9.754 0-17.637 7.897-17.637 17.637 0 27.47-17.653 58.063-42.965 58.063-18.153 0-34.497-22.745-40.504-43.069-1.566-5.312-2.471-10.462-2.471-14.994 0-9.12-6.945-16.534-15.82-17.455-8.89 0.921-15.835 8.337-15.835 17.455 0 5.287-0.673 10.668-1.895 15.937-5.189 22.156-20.627 42.127-41.073 42.127-22.892 0-42.968-36.184-42.968-58.063 0-9.74-7.9-17.637-17.644-17.637-9.734 0-17.637 7.897-17.637 17.637 0 37.161 31.207 93.343 78.25 93.343 25.932 0 46.498-14.013 60.052-33.887 13.722 19.243 33.557 33.887 57.544 33.887 48.325 0 78.247-48.451 78.247-93.343 0-9.74-7.892-17.638-17.644-17.638z" fill="#333333" p-id="2832"></path></svg>