<?xml version="1.0" standalone="no"?><!DOCTYPE svg PUBLIC "-//W3C//DTD SVG 1.1//EN" "http://www.w3.org/Graphics/SVG/1.1/DTD/svg11.dtd"><svg t="1508425603582" class="icon" style="" viewBox="0 0 1024 1024" version="1.1" xmlns="http://www.w3.org/2000/svg" p-id="607" xmlns:xlink="http://www.w3.org/1999/xlink" width="200" height="200"><defs><style type="text/css"></style></defs><path d="M375.017674 821.679062c-4.056386 0-7.9296-2.333138-9.699919-6.272867-8.776897-19.509333-22.776749-38.394449-41.61377-56.128345-44.599777-37.46631-91.617627-34.558074-92.086301-34.528398-0.25378 0.01842-0.50756 0.027629-0.762363 0.027629l-96.566336 0c-39.748283 0-72.085782-32.337499-72.085782-72.085782L62.203202 271.119861c0-39.748283 32.337499-72.085782 72.085782-72.085782l750.231823 0c39.748283 0 72.084759 32.337499 72.084759 72.085782l0 381.571439c0 39.749306-32.337499 72.085782-72.084759 72.085782L461.15345 724.777081c-5.870708 0-10.630105-4.758374-10.630105-10.631128 0-5.870708 4.759397-10.630105 10.630105-10.630105l423.366334 0c28.025287 0 50.825572-22.800285 50.825572-50.825572L935.345356 271.119861c0-28.025287-22.800285-50.825572-50.825572-50.825572L134.287961 220.294288c-28.02631 0-50.825572 22.800285-50.825572 50.825572l0 381.571439c0 28.025287 22.799262 50.825572 50.825572 50.825572l96.241948 0c5.686513-0.314155 57.716516-1.945305 107.095133 39.690978 0.145309 0.121773 0.286526 0.24764 0.425695 0.3776 20.99415 19.71911 36.691667 40.949644 46.654576 63.10013 2.408863 5.353938 0.020466 11.646248-5.333472 14.054087C377.956609 821.377186 376.474862 821.679062 375.017674 821.679062zM256.681522 468.884017c0.89437-15.796778 1.489934-35.469839 1.788739-53.649897l62.890352 0 0-79.582523-80.476893 0 0 13.412474 66.765613 0 0 52.756551-61.995983 0c0 25.335015-1.192152 59.611679-2.980891 80.178087l65.275679 0c-3.278673 62.59257-7.153934 86.140892-12.81691 92.399433-2.384303 2.682086-5.066389 2.979868-10.431583 2.979868-5.365194 0-20.566408 0-36.660968-1.787716 2.682086 4.173043 4.470825 9.537214 4.768607 14.008039 14.604626 0.89437 29.209252 1.193175 36.364209 0.89437 8.345062-0.297782 13.113669-2.086521 17.287735-6.854105 8.346085-8.942673 11.623735-34.576493 15.498996-107.302865 0.298805-2.086521 0.298805-7.451716 0.298805-7.451716L256.681522 468.884017zM507.052826 519.256264l-80.774675 0 0-28.315906 66.765613 0L493.043764 384.235105l-45.901423 0c11.028171-16.095583 23.547299-37.85312 33.6811-56.631812l-14.009062-5.365194c-8.346085 18.479887-22.652929 45.007053-34.277688 61.995983l-85.841064 0 0 106.705254 65.275679 0 0 28.315906L328.812329 519.255241l0 13.412474 83.158978 0 0 58.718333 14.306844 0 0-58.718333 80.774675 0L507.052826 519.256264zM360.109126 396.455427l51.863205 0 0 34.57547-51.863205 0L360.109126 396.455427zM360.109126 478.422254l0-35.171034 51.863205 0 0 35.171034L360.109126 478.422254zM402.731876 371.120412c-5.366218-13.412474-17.884322-32.488948-29.508058-47.093575l-11.326976 5.067412c11.028171 14.604626 23.248494 34.57547 28.613688 47.987944L402.731876 371.120412zM479.333508 431.030897l-53.054333 0 0-34.57547 53.054333 0L479.333508 431.030897zM479.333508 478.422254l-53.054333 0 0-35.171034 53.054333 0L479.333508 478.422254zM802.43323 488.853837l0-12.518105L637.904013 476.335732c5.661953-6.259564 10.431583-12.518105 14.604626-18.778692l115.647927 0 0-79.880305L576.205812 377.676735l0 79.880305 59.313897 0c-4.173043 6.259564-9.240455 12.519128-15.498996 18.778692l-81.966826 0 0 12.518105 68.851111 0c-18.478863 16.095583-42.920532 30.997991-72.129784 42.623773 2.979868 2.38328 6.855128 6.855128 8.643867 10.431583 15.498996-6.557346 29.209252-13.412474 41.430598-20.86419l0 62.294788 13.709233 0 0-56.036247 63.784722 0 0 63.189158 13.71128 0 0-63.189158 68.553329 0 0 38.748513c0 3.278673-0.89437 4.173043-4.76963 4.173043-3.576455 0.297782-15.20019 0.297782-30.402427-0.297782 2.087545 3.874237 4.173043 8.04728 4.76963 11.623735 19.076474 0 30.402427 0.297782 36.660968-2.085498 6.258541-2.087545 7.451716-5.664 7.451716-13.413498l0-43.218314c13.114692 7.749498 26.825972 14.008039 39.344077 18.479887 2.384303-3.576455 6.258541-8.345062 9.537214-11.028171-27.123754-7.749498-58.121745-23.546276-78.091566-41.430598L802.43323 488.85486zM612.568998 371.717l14.008039 0 0-16.691147 85.543282 0 0 16.691147 14.306844 0 0-16.691147 73.321936 0 0-12.81691L726.428186 342.208942l0-21.161972-14.306844 0 0 21.161972-85.543282 0 0-21.161972-14.008039 0 0 21.161972-72.726372 0 0 12.81691 72.726372 0L612.570022 371.717zM590.213851 388.705929l163.633824 0 0 23.248494L590.213851 411.954423 590.213851 388.705929zM590.213851 422.982594l163.633824 0 0 23.547299L590.213851 446.529893 590.213851 422.982594zM676.055938 514.785439l0-19.672038-13.71128 0 0 19.672038-68.255547 0c11.922541-8.04728 22.951735-16.98893 32.190143-25.931602l87.035262 0c8.344039 8.942673 19.671015 17.884322 31.593556 25.931602L676.055938 514.785439z" p-id="608"></path></svg>