<?xml version="1.0" standalone="no"?><!DOCTYPE svg PUBLIC "-//W3C//DTD SVG 1.1//EN" "http://www.w3.org/Graphics/SVG/1.1/DTD/svg11.dtd"><svg t="1509891184698" class="icon" style="" viewBox="0 0 1024 1024" version="1.1" xmlns="http://www.w3.org/2000/svg" p-id="846" xmlns:xlink="http://www.w3.org/1999/xlink" width="16" height="16"><defs><style type="text/css"></style></defs><path d="M816.360727 978.944H207.639273c-57.623273 0-104.541091-50.827636-104.541091-113.291636v-366.871273c0-62.464 46.871273-113.291636 104.541091-113.291636h11.543272V292.212364c0-173.707636 148.014545-277.504 291.048728-277.504 139.403636 0 294.725818 114.176 294.725818 277.969454v92.858182h11.403636c57.623273 0 104.494545 50.827636 104.494546 113.291636v366.871273c0 62.417455-46.871273 113.245091-104.494546 113.245091zM208.058182 478.813091c-9.495273 0-17.221818 9.029818-17.221818 20.154182v366.871272c0 11.077818 7.726545 20.154182 17.221818 20.154182h608.674909c9.495273 0 17.221818-9.029818 17.221818-20.154182V498.967273c0-11.124364-7.726545-20.154182-17.221818-20.154182H208.058182z m107.473454-93.277091h393.029819V292.677818c0-105.751273-104.727273-184.832-198.330182-184.832-95.697455 0-194.699636 68.933818-194.699637 184.32v93.370182z" fill="#00ACDC" p-id="847"></path></svg>