<?xml version="1.0" standalone="no"?><!DOCTYPE svg PUBLIC "-//W3C//DTD SVG 1.1//EN" "http://www.w3.org/Graphics/SVG/1.1/DTD/svg11.dtd"><svg t="1508425588248" class="icon" style="" viewBox="0 0 1024 1024" version="1.1" xmlns="http://www.w3.org/2000/svg" p-id="498" xmlns:xlink="http://www.w3.org/1999/xlink" width="200" height="200"><defs><style type="text/css"></style></defs><path d="M441.09312 133.64224c2.418688-13.377536 17.788928-28.60544 33.728512-28.60544 15.939584 0 55.502848 0.14336 72.153088 0 16.651264-0.14336 33.840128 11.696128 36.717568 28.60544 2.87744 16.909312 11.242496 66.318336 13.661184 80.265216 2.418688 13.945856 9.393152 19.212288 9.393152 19.212288s22.059008 9.535488 32.448512 13.663232c10.389504 4.125696 20.066304-2.563072 20.066304-2.563072s58.34752-41.555968 69.592064-49.523712c11.242496-7.969792 32.687104-8.078336 41.412608 0.425984 8.725504 8.506368 41.982976 40.845312 55.074816 54.221824 13.092864 13.377536 12.937216 35.446784 4.697088 46.963712-8.241152 11.515904-40.844288 57.06752-46.963712 65.746944s-7.120896 17.709056-4.269056 24.764416c2.850816 7.05536 10.246144 25.331712 11.527168 28.60544 1.281024 3.273728 8.203264 9.992192 14.943232 11.101184s65.334272 10.750976 83.478528 13.739008c18.14528 2.99008 30.826496 19.136512 30.80704 40.341504-0.016384 16.863232 0.055296 44.614656-0.088064 64.039936-0.142336 19.42528-9.936896 35.228672-30.343168 38.749184-20.40832 3.518464-72.968192 12.555264-81.293312 14.191616-8.326144 1.636352-14.455808 5.75488-17.647616 12.52352-3.18976 6.767616-8.822784 18.643968-11.383808 24.477696-2.562048 5.833728-3.359744 16.845824 1.707008 23.908352 5.067776 7.063552 40.702976 56.640512 48.244736 68.168704 7.54176 11.527168 12.863488 33.065984-4.269056 49.95072-17.132544 16.886784-33.088512 32.661504-47.817728 46.963712-14.729216 14.303232-34.582528 15.460352-50.378752 4.27008s-53.367808-37.783552-61.906944-43.974656c-8.538112-6.191104-14.753792-10.79296-26.897408-5.55008-12.142592 5.240832-18.572288 7.897088-26.044416 11.527168-7.471104 3.629056-11.513856 7.473152-13.2352 17.932288-1.72032 10.458112-10.3168 63.044608-13.80352 81.260544s-16.649216 30.336-44.116992 30.454784c-27.467776 0.119808-38.709248 0.285696-59.771904 0-21.062656-0.284672-35.78368-11.635712-39.420928-32.731136-3.638272-21.097472-11.029504-64.398336-13.519872-76.280832-2.491392-11.88352-5.513216-18.415616-15.93856-22.769664s-15.583232-6.546432-21.347328-8.823808c-5.764096-2.2784-16.647168-4.557824-27.039744 2.84672-10.3936 7.404544-46.109696 32.874496-63.756288 45.25568-17.646592 12.38016-38.699008 9.52832-51.803136-3.41504-13.103104-12.946432-36.431872-35.863552-47.533056-47.53408-11.10016-11.669504-16.222208-32.462848-4.8384-48.387072 11.383808-15.925248 33.586176-46.961664 44.686336-62.616576 11.101184-15.655936 8.967168-18.643968 4.839424-30.74048-4.12672-12.097536-5.479424-13.236224-9.10848-21.916672s-9.027584-13.18912-20.777984-15.084544c-11.749376-1.896448-48.101376-7.686144-72.580096-12.238848-24.477696-4.553728-37.285888-17.078272-37.285888-40.702976 0-23.622656 0-48.1024 0-62.759936 0-19.781632 11.331584-37.310464 29.754368-40.594432 18.42176-3.284992 58.281984-9.791488 75.13088-12.915712 17.646592-3.273728 22.383616-5.697536 27.039744-16.507904 4.655104-10.811392 8.681472-19.781632 11.10016-26.898432 2.418688-7.114752 0.630784-13.637632-8.112128-26.044416-8.742912-12.403712-27.324416-38.85056-40.131584-56.497152-12.809216-17.646592-15.085568-39.84896-0.570368-54.079488 14.517248-14.230528 38.710272-37.856256 49.524736-48.956416 10.816512-11.101184 30.052352-15.850496 47.817728-3.416064 17.768448 12.434432 46.67904 32.73216 61.195264 42.551296 14.516224 9.821184 19.417088 11.393024 29.459456 7.259136 10.042368-4.134912 29.032448-11.9552 29.032448-11.9552s8.660992-3.088384 11.101184-17.931264C429.87008 200.77056 438.674432 147.019776 441.09312 133.64224zM453.047296 218.602496c-3.335168 20.616192-11.527168 33.088512-28.178432 39.7056s-10.146816 4.083712-26.897408 11.10016c-16.749568 7.016448-34.368512 4.91008-49.098752-5.55008-14.729216-10.46016-57.744384-41.560064-64.04096-46.109696-6.295552-4.548608-13.449216-3.629056-18.358272 0.854016-4.91008 4.484096-40.3456 40.346624-46.963712 46.963712-6.617088 6.618112-6.404096 11.314176-0.854016 19.212288 5.551104 7.898112 32.918528 45.89568 44.401664 61.90592 11.483136 16.011264 14.516224 33.728512 7.68512 49.952768-6.831104 16.223232-3.907584 9.619456-11.10016 27.324416-7.192576 17.70496-24.763392 25.8304-43.547648 29.032448-18.786304 3.202048-68.301824 11.583488-73.007104 12.381184-4.706304 0.797696-12.382208 3.700736-12.382208 13.2352 0 9.535488 0 59.34592 0 66.176 0 6.831104 3.985408 12.383232 11.9552 14.09024 7.968768 1.707008 62.712832 10.800128 76.849152 13.2352 14.13632 2.434048 30.455808 8.538112 38.424576 26.897408 7.968768 18.358272 4.269056 9.864192 12.381184 28.60544 8.112128 18.742272 2.77504 36.289536-9.819136 53.482496-12.5952 17.189888-35.628032 50.372608-40.986624 57.950208-5.358592 7.575552-5.977088 14.516224 0 20.494336 5.977088 5.976064 42.836992 42.835968 46.536704 46.53568s11.669504 4.698112 18.358272 0.425984c6.688768-4.27008 53.716992-38.62016 65.321984-46.961664 11.604992-8.343552 28.890112-12.808192 51.232768-3.844096 22.34368 8.96512 16.382976 6.656 27.324416 11.101184 10.942464 4.445184 21.987328 21.134336 24.762368 40.559616 2.77504 19.42528 10.033152 65.32096 12.808192 74.287104 2.77504 8.966144 6.404096 11.9552 14.516224 11.9552s56.782848 0 64.894976 0c8.113152 0 12.382208-3.629056 13.662208-11.101184 1.282048-7.471104 8.455168-49.819648 11.9552-70.445056 3.500032-20.624384 10.247168-38.992896 33.728512-48.244736 23.481344-9.250816 6.324224-2.553856 22.20032-8.96512s31.736832-6.26176 48.698368 6.014976c24.830976 17.973248 57.486336 39.56224 64.442368 44.363776s12.381184 6.191104 18.786304 0c6.404096-6.19008 41.838592-41.839616 47.389696-47.39072 5.551104-5.55008 4.839424-11.953152 1.281024-17.50528-3.5584-5.551104-43.175936-60.371968-50.379776-70.444032-7.202816-10.072064-7.684096-28.819456-2.561024-42.267648s6.611968-17.52064 10.595328-26.957824c5.482496-12.988416 20.501504-25.138176 38.71744-28.055552 18.215936-2.916352 77.303808-13.561856 81.47456-14.291968 4.168704-0.731136 9.035776-5.62176 8.822784-11.384832s0-62.12096 0-68.31104-3.202048-12.168192-11.101184-13.377536c-7.898112-1.20832-67.5072-11.10016-84.818944-13.94688-17.31072-2.845696-28.463104-19.354624-33.586176-31.878144-5.123072-12.522496-2.78016-6.690816-9.10848-21.915648-6.327296-15.224832-5.407744-33.301504 5.407744-48.955392 10.816512-15.655936 44.008448-62.45376 47.53408-67.458048 3.524608-5.004288 3.057664-9.321472-1.139712-13.662208-4.197376-4.339712-41.412608-41.413632-47.532032-47.533056s-12.736512-6.404096-17.647616-2.845696c-4.909056 3.5584-69.399552 48.188416-75.424768 52.37248-6.02624 4.18304-26.186752 6.617088-36.149248 2.277376-9.961472-4.339712-21.3504-8.92928-31.307776-13.092864-9.960448-4.163584-23.624704-20.779008-25.545728-32.733184s-13.922304-80.34816-14.943232-86.242304c-1.020928-5.89312-7.328768-9.249792-11.313152-9.179136-3.986432 0.069632-63.614976 0-69.80608 0-6.19008 0-10.887168 6.902784-11.74016 10.46016C465.001472 144.456704 456.382464 197.988352 453.047296 218.602496zM681.396224 512.002048c0 93.386752-75.70432 169.09312-169.092096 169.09312-93.385728 0-169.090048-75.706368-169.090048-169.09312 0-93.384704 75.70432-169.091072 169.090048-169.091072C605.691904 342.910976 681.396224 418.617344 681.396224 512.002048zM512.304128 316.4416c-108.004352 0-195.560448 87.555072-195.560448 195.560448 0 108.0064 87.556096 195.562496 195.560448 195.562496 108.007424 0 195.562496-87.55712 195.562496-195.562496C707.867648 403.996672 620.311552 316.4416 512.304128 316.4416z" p-id="499"></path></svg>