<?xml version="1.0" standalone="no"?><!DOCTYPE svg PUBLIC "-//W3C//DTD SVG 1.1//EN" "http://www.w3.org/Graphics/SVG/1.1/DTD/svg11.dtd"><svg t="1509891168019" class="icon" style="" viewBox="0 0 1024 1024" version="1.1" xmlns="http://www.w3.org/2000/svg" p-id="703" xmlns:xlink="http://www.w3.org/1999/xlink" width="16" height="16"><defs><style type="text/css"></style></defs><path d="M283.107556 935.054222l-6.172445-0.028444 6.172445 0.028444z m-91.591112-360.163555l-0.028444 5.347555 0.028444-5.347555z m732.586667-92.643556c-4.181333-44.999111-42.865778-80.327111-90.225778-80.839111l-505.059555 0.284444-0.312889-134.712888v-0.341334h0.455111c0.654222-97.507556 82.289778-176.355556 182.954667-176.355555 95.032889 0 173.084444 70.286222 182.072889 160.199111a43.093333 43.093333 0 0 0-3.271112 16.497778l0.426667 1.735111c0 24.519111 20.508444 44.430222 45.795556 44.430222 25.315556 0 45.824-19.911111 45.824-44.430222l-0.426667-1.735111v-0.341334h3.128889l0.028444-0.711111C785.493333 119.04 662.784 0 511.402667 0 361.898667 0 240.384 116.138667 237.397333 260.465778a41.073778 41.073778 0 0 0-0.512 6.513778l0.227556 92.728888h0.199111v41.671112h-0.113778v0.369777l-54.328889 0.028445c-46.563556 4.238222-82.972444 42.268444-82.972444 88.490666v47.246223h-0.369778l0.284445 350.008889h0.085333v47.189333c0 49.123556 41.016889 88.917333 91.619555 88.917333h45.795556V1024l549.745778-0.312889v-0.056889h45.824c50.005333 0 90.624-38.883556 91.562666-87.210666l-0.341333-454.172445z m-91.619555 8.049778l0.028444 30.037333-0.199111-30.037333h0.170667zM191.459556 935.139556l-0.341334-444.444445h0.967111l-0.568889 84.195556c0.881778-70.769778 19.854222-83.541333 91.591112-83.541334l-29.155556-0.711111h24.120889a49.322667 49.322667 0 0 0 10.126222 0l495.331556-0.312889-42.24 1.024c67.697778 0 88.405333 11.377778 91.249777 72.135111l0.227556 291.640889c-1.592889 61.724444-18.744889 77.738667-77.255111 79.701334l-564.053333 0.312889z m587.150222-0.312889l53.674666-0.341334 0.483556-71.281777 0.056889 71.594666-54.215111 0.028445z m-587.093334-84.593778l-0.028444-5.461333 0.028444 5.461333z m0 0l0.568889 84.252444 84.849778 0.540445c-66.616889-0.853333-84.536889-16.156444-85.418667-84.792889z" p-id="704" fill="#1296db"></path></svg>